<svg version="1.0" xmlns="http://www.w3.org/2000/svg" width="800.000000" height="800.000000" viewBox="0 0 800.000000 800.000000" preserveAspectRatio="xMidYMid meet">
  <metadata>
    <rdf:RDF xmlns:rdf="http://www.w3.org/1999/02/22-rdf-syntax-ns#" xmlns:rdfs="http://www.w3.org/2000/01/rdf-schema#" xmlns:dc="http://purl.org/dc/elements/1.1/">
      <rdf:Description dc:format="image/svg+xml" dc:Label="1" dc:ContentProducer="001191330110MACRLGPT8B00000" dc:ProduceID="460679339" dc:ReservedCode1="2qOQz/7mCUsFLebUhKycwdFb3jQ/ETrURmrTQCYch5U=" dc:ContentPropagator="001191330110MACRLGPT8B00000" dc:PropagateID="460679339" dc:ReservedCode2="2qOQz/7mCUsFLebUhKycwdFb3jQ/ETrURmrTQCYch5U="/>
    </rdf:RDF>
  </metadata>
  <g transform="translate(0.000000,800.000000) scale(0.100000,-0.100000)" fill="#000000" stroke="none">
    <path d="M4255 5879 c-44 -24 -277 -158 -895 -516 -228 -132 -472 -274 -542 -314 l-128 -74 0 -246 0 -245 -472 -274 c-260 -150 -548 -316 -640 -369 -92 -53 -167 -99 -168 -103 0 -4 19 -17 43 -29 23 -12 110 -61 192 -109 83 -48 438 -255 790 -460 352 -205 719 -419 815 -475 586 -343 560 -330 620 -329 36 1 70 9 100 24 40 20 462 262 880 503 151 87 1108 636 1403 805 81 47 144 88 140 93 -4 4 -62 39 -128 77 -66 38 -338 197 -605 354 -267 156 -509 298 -537 314 -51 28 -53 31 -53 70 0 38 -3 43 -51 73 -28 17 -53 31 -56 31 -11 0 -273 -151 -288 -167 -12 -12 -15 -48 -15 -187 l0 -172 28 -25 c61 -55 54 -55 149 -3 49 26 113 61 143 77 30 16 65 38 77 49 l21 20 164 -95 c558 -323 700 -408 704 -422 2 -5 -11 -17 -29 -25 -18 -9 -122 -68 -232 -131 -110 -64 -324 -187 -475 -274 -151 -87 -374 -215 -495 -285 -789 -456 -755 -438 -818 -446 -62 -9 -121 18 -397 180 -129 76 -388 227 -575 336 -187 108 -428 249 -535 312 -107 63 -272 159 -367 214 -127 73 -169 102 -160 110 7 6 77 48 157 94 155 90 440 255 583 338 l87 51 0 -282 0 -283 54 -33 54 -32 44 22 c37 19 192 108 473 272 39 22 72 40 75 39 3 -1 5 -26 6 -56 0 -61 9 -54 -191 -164 -55 -30 -107 -61 -116 -68 -10 -10 -16 -34 -18 -73 l-2 -58 51 -33 c62 -40 32 -50 325 119 121 71 294 171 385 223 l165 95 3 66 c3 62 1 66 -26 86 -39 28 -78 41 -88 31 -11 -10 -192 -110 -200 -110 -3 0 -4 25 -2 56 l3 56 100 57 c330 188 469 268 538 309 l77 46 0 663 0 663 -47 30 c-26 17 -49 30 -53 30 -3 0 -23 -10 -45 -21z m-55 -764 l-1 -465 -37 -24 c-20 -13 -89 -53 -152 -88 -160 -91 -602 -346 -867 -499 -122 -71 -224 -129 -227 -129 -3 0 -6 211 -6 469 l0 469 233 135 c203 118 573 332 922 533 61 35 116 64 123 64 10 0 12 -97 12 -465z"/>
    <path d="M3768 5047 c-41 -23 -58 -38 -58 -53 0 -20 -60 -113 -103 -161 l-20 -23 -34 26 c-18 14 -38 24 -42 22 -20 -7 -241 -297 -241 -315 0 -16 121 -96 129 -87 4 5 35 45 68 89 33 44 69 88 80 98 19 16 21 16 39 -4 44 -48 47 -47 144 73 75 93 97 113 118 113 25 0 30 7 59 90 17 50 32 93 32 96 1 9 -93 69 -105 68 -5 0 -35 -15 -66 -32z"/>
    <path d="M4323 4353 l-153 -86 0 -178 0 -178 46 -31 c54 -38 48 -40 233 66 l126 72 3 179 2 178 -49 33 c-27 17 -51 32 -53 32 -2 0 -72 -39 -155 -87z m111 -182 c-3 -14 -8 -50 -9 -79 -2 -30 -6 -56 -8 -59 -8 -7 -60 22 -82 47 -20 22 -20 22 0 36 39 27 46 36 40 55 -9 28 0 36 35 31 29 -4 31 -7 24 -31z"/>
    <path d="M4925 4066 c-22 -13 -91 -52 -152 -86 l-113 -63 0 -181 0 -181 39 -27 c22 -16 44 -28 51 -28 15 0 56 21 198 103 l122 71 0 176 c0 156 -2 176 -17 186 -10 5 -34 20 -53 31 l-35 21 -40 -22z"/>
    <path d="M4329 3770 l-154 -87 -3 -176 -2 -175 42 -36 c23 -20 49 -36 58 -36 9 0 81 38 161 84 l144 85 3 184 2 184 -48 30 -48 30 -155 -87z m105 -175 c17 -13 18 -19 7 -54 -21 -73 -60 -92 -85 -42 -15 28 -15 29 9 35 21 5 25 13 25 41 0 38 13 44 44 20z"/>
  </g>
</svg>
